<?xml version="1.0" encoding="UTF-8" standalone="no"?>
<!-- Created with Inkscape (http://www.inkscape.org/) -->
<svg id="svg3920" xmlns:rdf="http://www.w3.org/1999/02/22-rdf-syntax-ns#" xmlns="http://www.w3.org/2000/svg" height="48" width="130" version="1.1" xmlns:cc="http://creativecommons.org/ns#" xmlns:dc="http://purl.org/dc/elements/1.1/">
 <metadata id="metadata3925">
  <rdf:RDF>
   <cc:Work rdf:about="">
    <dc:format>image/svg+xml</dc:format>
    <dc:type rdf:resource="http://purl.org/dc/dcmitype/StillImage"/>
    <dc:title/>
   </cc:Work>
  </rdf:RDF>
 </metadata>
 <g id="layer1" transform="translate(0,-12)">
  <g id="g3902" transform="translate(-140.91371,-416.06901)">
   <path id="path3866" fill="#515151" d="m150.65,433.21,0,8.4961-8.7363,0,0-8.4961zm0,16.705,0,8.3994-8.7363,0,0-8.3994z"/>
   <path id="path3868" fill="#cf5c00" d="m167.34,433.21,0,8.4961-8.7363,0,0-8.4961zm0,16.705,0,8.3994-8.7363,0,0-8.3994z"/>
   <path id="path3870" fill="#515151" d="m193.34,428.79c2.623,0.00003,4.9187,0.37601,6.887,1.1279,1.9682,0.75198,3.6726,1.7998,5.113,3.1436,1.6318,1.5039,2.9116,3.28,3.8394,5.3284,0.9277,2.0484,1.3916,4.2561,1.3916,6.6233-0.00003,2.1445-0.36795,4.1448-1.1038,6.0007-0.73587,1.856-1.76,3.5042-3.0725,4.9446-1.5039,1.6318-3.3279,2.9197-5.4719,3.8635-2.1441,0.94385-4.6716,1.4158-7.5828,1.4158h-17.521c-1.4082,0-2.1123-0.68799-2.1123-2.064v-28.368c-0.00001-1.3437,0.7041-2.0156,2.1123-2.0156zm-10.321,8.5913c-0.41603,0.00002-0.62404,0.22414-0.62403,0.67236v13.969c-0.00001,0.44728,0.208,0.67091,0.62403,0.6709h10.321c1.5351,0.00001,2.8308-0.22387,3.887-0.67163,1.0561-0.44774,1.9362-1.0559,2.6404-1.8245,0.63962-0.67187,1.1355-1.4477,1.4876-2.3276,0.35202-0.87987,0.52805-1.8159,0.52808-2.8081-0.00003-1.0879-0.2161-2.1118-0.6482-3.0718-0.43216-0.95994-1.0159-1.792-1.7512-2.4961-0.70413-0.63962-1.5362-1.1516-2.4961-1.5359-0.95999-0.38426-2.1758-0.5764-3.6475-0.57642z"/>
   <path id="path3872" fill="#515151" d="m223.46,461.24-8.688,0,0-30.432c-0.00001-1.3437,0.72021-2.0156,2.1606-2.0156h23.041c2.0156,0.00003,3.6794,0.28006,4.9914,0.84009,1.312,0.56009,2.4157,1.304,3.3113,2.2317,0.80075,0.83206,1.4331,1.8001,1.897,2.904,0.46382,1.104,0.69576,2.2639,0.6958,3.4797-0.00004,1.3125-0.22416,2.5528-0.67237,3.7207-0.44828,1.168-1.2481,2.168-2.3994,3,1.0878,0.63966,1.8798,1.4556,2.376,2.4478,0.49605,0.9922,0.7441,2.416,0.74414,4.2715v6.4805c-0.00004,0.7041,0.008,1.28,0.0234,1.7278,0.0156,0.44776,0.0556,0.89575,0.12012,1.344h-8.7847c-0.0957-0.70411-0.14358-1.4243-0.14355-2.1606v-6.479c-0.00003-1.0244-0.272-1.7605-0.81592-2.2083-0.54397-0.44774-1.4561-0.67161-2.7363-0.67163h-15.12zm15.36-18.913c0.60837,0.00002,1.1045-0.0959,1.4883-0.28784,0.38376-0.19188,0.70358-0.44749,0.95947-0.76685,0.41599-0.51267,0.62399-1.0727,0.62402-1.6802-0.00003-0.7363-0.23977-1.3447-0.71923-1.8252-0.51175-0.57517-1.2959-0.86277-2.3525-0.86279h-14.64c-0.48048,0.00002-0.72072,0.23977-0.72071,0.71923v4.7036z"/>
   <path id="path3874" fill="#515151" d="m261.32,428.79c1.5039,0.00003,2.7678,0.168,3.7917,0.50391,1.0239,0.33597,1.8479,0.85599,2.4719,1.5601,0.62401,0.70413,1.072,1.6001,1.344,2.688,0.27196,1.0879,0.40794,2.3838,0.40796,3.8877v23.808h-8.6396v-22.512c-0.00001-0.89646-0.41602-1.3447-1.248-1.3447h-5.3276v-8.5913z"/>
   <g id="text3808" style="letter-spacing:0px;word-spacing:0px;" font-weight="bold" transform="scale(0.98423026,1.0160224)" font-size="13.78214073px" font-stretch="normal" line-height="125%" font-variant="normal" font-family="Nulshock Rg" font-style="normal" fill="#FFF">
    <path id="path3877" d="m149.81,458.01c0.75314,0,1.4123,0.10796,1.9774,0.32386,0.56514,0.21591,1.0545,0.51678,1.4681,0.9026,0.46853,0.43182,0.83599,0.94179,1.1024,1.5299,0.26637,0.58814,0.39956,1.222,0.39957,1.9017-0.00001,0.61576-0.10565,1.1901-0.31692,1.723-0.21129,0.5329-0.50536,1.0061-0.8822,1.4197-0.43183,0.46854-0.95554,0.83832-1.5711,1.1093-0.61563,0.27101-1.3414,0.40651-2.1772,0.40651h-5.0308c-0.40433,0-0.6065-0.19754-0.6065-0.59262v-8.1453c0-0.38582,0.20217-0.57874,0.6065-0.57874zm-2.9635,2.4668c-0.11945,0.00001-0.17918,0.0644-0.17917,0.19305v4.0108c-0.00001,0.12843,0.0597,0.19264,0.17917,0.19264h2.9635c0.44078,0,0.8128-0.0643,1.1161-0.19285,0.30324-0.12856,0.55595-0.30318,0.75812-0.52385,0.18366-0.19291,0.32603-0.41569,0.42712-0.66833,0.10108-0.25264,0.15162-0.5214,0.15163-0.80629-0.00001-0.31236-0.062-0.60635-0.18612-0.88199-0.12408-0.27563-0.29169-0.51453-0.50282-0.7167-0.20218-0.18365-0.44108-0.33065-0.7167-0.441-0.27564-0.11033-0.62473-0.16549-1.0473-0.1655z"/>
    <path id="path3879" d="m158.45,467.33-2.4946,0,0-8.7379c0-0.38582,0.2068-0.57874,0.62038-0.57874h6.6156c0.57874,0,1.0565,0.0804,1.4332,0.24121,0.37671,0.16082,0.69363,0.37441,0.95076,0.64078,0.22992,0.23891,0.41147,0.51685,0.54467,0.83383,0.13318,0.317,0.19978,0.65004,0.19979,0.99913-0.00001,0.37686-0.0644,0.73297-0.19306,1.0683-0.12871,0.33536-0.35836,0.62249-0.68893,0.86138,0.31235,0.18367,0.53975,0.41794,0.6822,0.70282,0.14244,0.28489,0.21366,0.69371,0.21367,1.2265v1.8607c-0.00001,0.20217,0.002,0.36753,0.007,0.49609,0.004,0.12857,0.016,0.2572,0.0345,0.3859h-2.5223c-0.0275-0.20217-0.0412-0.40896-0.0412-0.62038v-1.8603c0-0.29414-0.0781-0.50549-0.23427-0.63405-0.15619-0.12856-0.41808-0.19284-0.78567-0.19285h-4.3414zm4.4104-5.4303c0.17468,0,0.31713-0.0275,0.42733-0.0827,0.11019-0.0551,0.20202-0.12849,0.27549-0.22018,0.11944-0.14721,0.17917-0.30802,0.17918-0.48243-0.00001-0.21141-0.0688-0.3861-0.20652-0.52406-0.14693-0.16515-0.37209-0.24773-0.67548-0.24774h-4.2034c-0.13796,0.00001-0.20694,0.0688-0.20693,0.20652v1.3505z"/>
    <path id="path3881" d="m170.77,467.33c-0.588,0-1.0887-0.0574-1.5022-0.17223-0.41345-0.11483-0.75112-0.294-1.013-0.53753-0.26189-0.24352-0.45256-0.55133-0.57201-0.92342s-0.17917-0.82002-0.17917-1.3438v-6.3397h2.5084v6.0642c0,0.57875,0.29862,0.86812,0.89587,0.86811h3.8729c0.61546,0.00001,0.9232-0.28936,0.92321-0.86811v-6.0642h2.5084v6.3397c-0.00001,1.0383-0.25265,1.7941-0.75792,2.2672-0.50528,0.47318-1.3414,0.70976-2.5084,0.70976z"/>
    <path id="path3883" d="m186.68,467.52c-0.3306,0-0.63834-0.0689-0.92321-0.20673-0.2849-0.13781-0.5008-0.35379-0.64773-0.64793l-2.8256-5.8572c-0.0275-0.0735-0.0872-0.11019-0.17917-0.1102-0.055,0.00001-0.10544,0.0207-0.15142,0.062-0.046,0.0414-0.069,0.10326-0.069,0.1857v6.3813h-2.3982v-6.8221c-0.00001-0.52378,0.0758-0.95566,0.22754-1.2956,0.15169-0.33998,0.36536-0.62016,0.64099-0.84057,0.21114-0.16542,0.45228-0.30099,0.72343-0.40671,0.27114-0.1057,0.57201-0.15856,0.9026-0.15857,0.58799,0.00001,1.0681,0.16082,1.4403,0.48243,0.37222,0.32162,0.67778,0.7397,0.91669,1.2542l2.1084,4.5757c0.046,0.11945,0.12407,0.17918,0.23428,0.17917,0.11019,0.00001,0.18828-0.0597,0.23427-0.17917l2.1089-4.5757c0.23888-0.51452,0.54207-0.9326,0.90954-1.2542,0.36745-0.32161,0.8498-0.48242,1.4471-0.48243,0.33086,0.00001,0.6318,0.0529,0.90282,0.15857,0.27099,0.10572,0.5122,0.24129,0.72363,0.40671,0.27562,0.22041,0.48922,0.50059,0.64078,0.84057,0.15155,0.33999,0.22732,0.77187,0.22734,1.2956v6.8221h-2.3982v-6.3813c-0.00001-0.0824-0.0229-0.14433-0.0688-0.1857-0.0459-0.0414-0.0964-0.062-0.15162-0.062-0.0917,0.00001-0.15143,0.0367-0.17918,0.1102l-2.8252,5.8572c-0.14722,0.29414-0.3632,0.51012-0.64793,0.64793-0.28475,0.13782-0.59256,0.20673-0.92342,0.20673z"/>
    <path id="path3885" d="m207.92,467.52c-0.3306,0-0.63833-0.0689-0.92321-0.20673-0.28489-0.13781-0.5008-0.35379-0.64772-0.64793l-2.8256-5.8572c-0.0275-0.0735-0.0872-0.11019-0.17918-0.1102-0.055,0.00001-0.10543,0.0207-0.15141,0.062-0.046,0.0414-0.069,0.10326-0.069,0.1857v6.3813h-2.3982v-6.8221c0-0.52378,0.0759-0.95566,0.22754-1.2956,0.1517-0.33998,0.36536-0.62016,0.64099-0.84057,0.21114-0.16542,0.45229-0.30099,0.72343-0.40671,0.27114-0.1057,0.57201-0.15856,0.9026-0.15857,0.588,0.00001,1.0681,0.16082,1.4403,0.48243,0.37222,0.32162,0.67779,0.7397,0.91669,1.2542l2.1085,4.5757c0.046,0.11945,0.12407,0.17918,0.23427,0.17917,0.11019,0.00001,0.18828-0.0597,0.23427-0.17917l2.1089-4.5757c0.23889-0.51452,0.54207-0.9326,0.90954-1.2542,0.36745-0.32161,0.84981-0.48242,1.4471-0.48243,0.33086,0.00001,0.63179,0.0529,0.90281,0.15857,0.27099,0.10572,0.51221,0.24129,0.72364,0.40671,0.27562,0.22041,0.48921,0.50059,0.64078,0.84057,0.15154,0.33999,0.22732,0.77187,0.22733,1.2956v6.8221h-2.3982v-6.3813c-0.00002-0.0824-0.0229-0.14433-0.0688-0.1857-0.0459-0.0414-0.0964-0.062-0.15163-0.062-0.0917,0.00001-0.15142,0.0367-0.17917,0.1102l-2.8252,5.8572c-0.14721,0.29414-0.36319,0.51012-0.64793,0.64793-0.28475,0.13782-0.59256,0.20673-0.92342,0.20673z"/>
    <path id="path3887" d="m221.21,467.33c-0.83616,0-1.562-0.1355-2.1776-0.40651-0.61562-0.271-1.1393-0.64078-1.5711-1.1093-0.37686-0.41359-0.67092-0.88683-0.8822-1.4197-0.21128-0.53289-0.31692-1.1072-0.31692-1.723,0-0.67968,0.13318-1.3136,0.39956-1.9017,0.26638-0.58813,0.63398-1.0981,1.1028-1.5299,0.4133-0.38582,0.90253-0.68669,1.4677-0.9026,0.56513-0.2159,1.2244-0.32386,1.9779-0.32386h1.957c0.75342,0,1.4126,0.10796,1.9776,0.32386,0.56499,0.21591,1.0543,0.51678,1.4679,0.9026,0.46854,0.43182,0.836,0.94179,1.1024,1.5299,0.26636,0.58814,0.39955,1.222,0.39956,1.9017-0.00001,0.61576-0.10565,1.1901-0.31692,1.723-0.21129,0.5329-0.50521,1.0061-0.88178,1.4197-0.4321,0.46854-0.95589,0.83832-1.5714,1.1093-0.61548,0.27101-1.3413,0.40651-2.1774,0.40651zm0-6.8498c-0.42285,0.00001-0.77209,0.0552-1.0477,0.1655-0.27564,0.11035-0.51454,0.25735-0.7167,0.441-0.21114,0.20217-0.37875,0.44107-0.50283,0.7167-0.12408,0.27564-0.18611,0.56963-0.18611,0.88199,0,0.28489,0.0505,0.55365,0.15163,0.80629,0.10108,0.25264,0.24345,0.47542,0.42711,0.66833,0.20217,0.22067,0.45487,0.39529,0.75813,0.52385,0.30325,0.12857,0.6754,0.19285,1.1165,0.19285h1.957c0.44105,0,0.81314-0.0643,1.1163-0.19285,0.3031-0.12856,0.55574-0.30318,0.75792-0.52385,0.18365-0.19291,0.32602-0.41569,0.42712-0.66833,0.10107-0.25264,0.15161-0.5214,0.15162-0.80629-0.00001-0.31236-0.062-0.60635-0.1859-0.88199-0.12395-0.27563-0.29163-0.51453-0.50304-0.7167-0.20217-0.18365-0.44107-0.33065-0.7167-0.441-0.27564-0.11033-0.62473-0.16549-1.0473-0.1655z"/>
    <path id="path3889" d="m234.95,458.01c0.75315,0,1.4123,0.10796,1.9774,0.32386,0.56514,0.21591,1.0545,0.51678,1.4681,0.9026,0.46854,0.43182,0.836,0.94179,1.1024,1.5299,0.26636,0.58814,0.39955,1.222,0.39956,1.9017-0.00001,0.61576-0.10565,1.1901-0.31692,1.723-0.21129,0.5329-0.50536,1.0061-0.8822,1.4197-0.43182,0.46854-0.95554,0.83832-1.5711,1.1093-0.61562,0.27101-1.3414,0.40651-2.1772,0.40651h-5.0308c-0.40434,0-0.60651-0.19754-0.6065-0.59262v-8.1453c-0.00001-0.38582,0.20216-0.57874,0.6065-0.57874zm-2.9635,2.4668c-0.11945,0.00001-0.17917,0.0644-0.17917,0.19305v4.0108c0,0.12843,0.0597,0.19264,0.17917,0.19264h2.9635c0.44078,0,0.8128-0.0643,1.1161-0.19285,0.30324-0.12856,0.55595-0.30318,0.75813-0.52385,0.18365-0.19291,0.32602-0.41569,0.42711-0.66833,0.10108-0.25264,0.15162-0.5214,0.15163-0.80629-0.00001-0.31236-0.062-0.60635-0.18612-0.88199-0.12408-0.27563-0.29169-0.51453-0.50282-0.7167-0.20217-0.18365-0.44107-0.33065-0.7167-0.441-0.27564-0.11033-0.62473-0.16549-1.0473-0.1655z"/>
    <path id="path3891" d="m244.31,467.33c-0.588,0-1.0887-0.0574-1.5022-0.17223-0.41345-0.11483-0.75112-0.294-1.013-0.53753-0.2619-0.24352-0.45257-0.55133-0.57202-0.92342s-0.17917-0.82002-0.17917-1.3438v-6.3397h2.5084v6.0642c0,0.57875,0.29862,0.86812,0.89588,0.86811h3.8729c0.61546,0.00001,0.9232-0.28936,0.92321-0.86811v-6.0642h2.5084v6.3397c-0.00001,1.0383-0.25265,1.7941-0.75791,2.2672-0.50529,0.47318-1.3414,0.70976-2.5084,0.70976z"/>
    <path id="path3893" d="m256.06,467.33c-0.56949,0-1.0495-0.062-1.4401-0.18611-0.39059-0.12408-0.70303-0.31244-0.9373-0.56508-0.23427-0.25263-0.40195-0.56962-0.50303-0.95097-0.10109-0.38134-0.15163-0.82465-0.15163-1.3299v-6.2846h2.5084v6.0503c0,0.33985,0.0574,0.57181,0.17224,0.69588,0.11482,0.12408,0.33304,0.18612,0.65466,0.18611h6.4637v2.3844z"/>
    <path id="path3895" d="m273.58,458.01,0,2.4668-7.0841,0c-0.14693,0.00001-0.2204,0.0781-0.22039,0.23427v1.0612h7.2629v1.7918h-7.2629v1.1301c-0.00001,0.16544,0.0735,0.24816,0.22039,0.24815h7.0841v2.3844h-8.4898c-0.87288,0-1.3093-0.43181-1.3093-1.2954v-6.767c0-0.83614,0.44093-1.2542,1.3228-1.2542z"/>
   </g>
  </g>
 </g>
</svg>
