<?xml version="1.0" encoding="UTF-8" standalone="no"?>
<!-- Created with Inkscape (http://www.inkscape.org/) -->
<svg id="svg2" xmlns:rdf="http://www.w3.org/1999/02/22-rdf-syntax-ns#" xmlns="http://www.w3.org/2000/svg" height="41" width="351" version="1.1" xmlns:cc="http://creativecommons.org/ns#" xmlns:dc="http://purl.org/dc/elements/1.1/">
 <metadata id="metadata7">
  <rdf:RDF>
   <cc:Work rdf:about="">
    <dc:format>image/svg+xml</dc:format>
    <dc:type rdf:resource="http://purl.org/dc/dcmitype/StillImage"/>
    <dc:title/>
   </cc:Work>
  </rdf:RDF>
 </metadata>
 <g id="layer1" transform="translate(0,-1011.3622)">
  <g id="g3062" fill="#000" transform="translate(-28.202115,39.674161)">
   <path id="path2994" d="m39.491,980.94,25.729,0c2.7519,0.00003,5.0959,0.96805,7.032,2.9041,1.936,1.936,2.904,4.28,2.9041,7.032v7.7768c-0.00005,2.7197-0.96807,5.0557-2.9041,7.0078-1.9361,1.9522-4.2801,2.9282-7.032,2.9282h-25.729c-2.7197,0-5.0557-0.976-7.0078-2.9282-1.9522-1.9521-2.9282-4.2881-2.9282-7.0078v-7.7768c0-2.7519,0.97607-5.0959,2.9282-7.032,1.9521-1.936,4.2881-2.904,7.0078-2.9041zm2.4009,6.2402c-1.1201,0.00002-2.0803,0.40017-2.8806,1.2004-0.8003,0.80031-1.2004,1.7605-1.2004,2.8806v6.624c-0.000009,1.1192,0.40014,2.0789,1.2004,2.8792,0.80028,0.8003,1.7605,1.2004,2.8806,1.2004h20.543c1.1201,0,2.0803-0.4001,2.8806-1.2004,0.80026-0.80032,1.2004-1.76,1.2004-2.8792v-6.624c-0.000038-1.1201-0.40018-2.0803-1.2004-2.8806-0.80033-0.80027-1.7605-1.2004-2.8806-1.2004h-20.543zm-4.1763,4.3682,28.8,0,0,5.9517-28.8,0z"/>
   <path id="path2996" d="m78.29,988.14,0-6.2886,32.016,0c3.1679,0.00003,5.6801,0.83206,7.5366,2.4961,1.1513,1.0244,1.935,2.2246,2.3511,3.6006,0.28804,1.0235,0.43208,2.4634,0.43213,4.3198v16.272h-35.76c-2.624,0-4.688-0.72-6.1919-2.1599-1.5039-1.44-2.2559-3.4558-2.2559-6.0476,0-2.5928,0.76001-4.6011,2.28-6.0249s3.5759-2.1357,6.1677-2.1357h27.744v-0.24024c-0.00003-1.9834-0.73587-3.1831-2.2075-3.5991-0.44827-0.12791-1.1363-0.19187-2.064-0.19189zm34.32,14.111,0-4.0796-25.632,0c-1.6963,0.00001-2.5444,0.68799-2.5444,2.064,0,1.3438,0.84814,2.0156,2.5444,2.0156z"/>
   <path id="path2998" d="m131.64,998.17c-2.4961,0.00001-4.52-0.72802-6.0718-2.1841-1.5518-1.456-2.3276-3.4321-2.3276-5.9282,0-3.2959,1.2959-5.6797,3.8877-7.1514,1.248-0.70407,2.752-1.0561,4.5117-1.0562h33.984v6.2886h-32.399c-1.7598,0.00002-2.6396,0.67189-2.6396,2.0156-0.00001,1.3438,0.87987,2.0156,2.6396,2.0156l25.44,0.0483c2.496,0.00002,4.52,0.7361,6.0718,2.2083,1.5517,1.4722,2.3276,3.4558,2.3276,5.9509-0.00004,3.3604-1.2959,5.7447-3.8877,7.1528-1.2158,0.6719-2.7198,1.0079-4.5117,1.0079h-35.424v-6.2886l33.839,0.048c1.7607,0,2.6411-0.688,2.6411-2.064-0.00004-1.3437-0.88041-2.0156-2.6411-2.0156z"/>
   <path id="path3000" d="m175.75,998.17c-2.4961,0.00001-4.52-0.72802-6.0718-2.1841-1.5518-1.456-2.3276-3.4321-2.3276-5.9282,0-3.2959,1.2959-5.6797,3.8877-7.1514,1.248-0.70407,2.7519-1.0561,4.5117-1.0562h33.984v6.2886h-32.399c-1.7598,0.00002-2.6397,0.67189-2.6396,2.0156-0.00001,1.3438,0.87987,2.0156,2.6396,2.0156l25.44,0.0483c2.496,0.00002,4.52,0.7361,6.0718,2.2083,1.5517,1.4722,2.3276,3.4558,2.3276,5.9509-0.00004,3.3604-1.2959,5.7447-3.8877,7.1528-1.2159,0.6719-2.7198,1.0079-4.5117,1.0079h-35.424v-6.2886l33.839,0.048c1.7607,0,2.6411-0.688,2.6411-2.064-0.00004-1.3437-0.88041-2.0156-2.6411-2.0156z"/>
   <path id="path3002" d="m250.66,1008.5c-6.1445,0-10.097-2.4961-11.856-7.4883-0.67188-1.9199-1.0078-3.936-1.0078-6.0483v-13.248h8.7363v12.432c-0.00001,2.0801,0.63964,3.7124,1.919,4.897,1.0244,0.95998,2.4966,1.44,4.4165,1.44h25.104v8.0156z"/>
   <path id="path3004" d="m287.8,1008.5-8.0156,0,0-26.688,8.0156,0zm0-29.376-8.0156,0,0-6.3838,8.0156,0z"/>
   <path id="path3006" d="m324.56,991.3c-0.00003-1.8554-0.92776-2.7832-2.7832-2.7832h-23.713v20.016h-8.0156v-26.688h33.023c3.2002,0.00003,5.6162,0.8638,7.248,2.5913,1.5039,1.6006,2.2558,3.457,2.2559,5.5693v18.527h-8.0156z"/>
   <path id="path3008" d="m348.87,1002.2,27.888,0,0,6.2886-28.944,0c-4.1602,0-7.3362-1.176-9.5281-3.5281-2.1919-2.352-3.2878-5.6242-3.2878-9.8166,0-4.1914,1.0959-7.4631,3.2878-9.8152,2.1919-2.352,5.3679-3.528,9.5281-3.5281h28.944v6.2886h-27.888c-1.4717,0.00002-2.6875,0.41603-3.6475,1.248-0.44826,0.38381-1.0244,1.2798-1.7285,2.688l-0.0483,0.0952h33.312v6h-33.312l0.0483,0.14355c0.63964,1.376,1.2158,2.2719,1.7285,2.688,0.95995,0.832,2.1758,1.248,3.6475,1.248z"/>
  </g>
 </g>
</svg>
